<?xml version="1.0" encoding="utf-8"?>
<!-- Generator: Adobe Illustrator 24.2.0, SVG Export Plug-In . SVG Version: 6.00 Build 0)  -->
<svg version="1.1" id="Layer_1" xmlns="http://www.w3.org/2000/svg" xmlns:xlink="http://www.w3.org/1999/xlink" x="0px" y="0px"
	 viewBox="0 0 23.2 24.2" style="enable-background:new 0 0 23.2 24.2;" xml:space="preserve">
<style type="text/css">
	.st0{fill:none;stroke:#FFFFFF;stroke-width:1.5;stroke-miterlimit:10;}
</style>
<g id="Layer_2_1_">
	<g id="Layer_1-2">
		<g id="Layer_1-3">
			<path id="Basket_2" class="st0" d="M19.7,6.4H3.4c-0.5-0.1-1,0.3-1.1,0.9c0,0,0,0.1,0,0.1v0.1L0.8,22.3c-0.1,0.5,0.2,1.1,0.8,1.2
				c0,0,0,0,0,0h19.8c0.5,0.1,1-0.3,1.1-0.9c0,0,0-0.1,0-0.1v-0.2L21,7.6C20.8,7,20.3,6.5,19.7,6.4z"/>
			<path id="Basket_1" class="st0" d="M16.5,6.6c0,0,0-5.8-5.2-5.8S6.1,6.6,6.1,6.6"/>
		</g>
	</g>
</g>
</svg>
