<svg height='100px' width='100px'  fill="#12ff00" xmlns="http://www.w3.org/2000/svg" xmlns:xlink="http://www.w3.org/1999/xlink" version="1.1" x="0px" y="0px" viewBox="0 0 500 500" enable-background="new 0 0 500 500" xml:space="preserve"><g><g><path d="M68.6,301.6c26.9,23.7,53.8,47.5,80.7,71.2c3.9,3.4,7.7,6.8,11.6,10.2c10.2,9,25.2,9.9,35.4,0    c26.5-25.9,52.9-51.9,79.4-77.8c42.2-41.4,84.4-82.8,126.6-124.2c9.7-9.5,19.5-19.1,29.2-28.6c9.4-9.2,9.9-26.3,0-35.4    c-10.1-9.2-25.4-9.8-35.4,0c-26.5,25.9-52.9,51.9-79.4,77.8C274.5,236.2,232.2,277.6,190,319c-9.7,9.5-19.5,19.1-29.2,28.6    c11.8,0,23.6,0,35.4,0c-26.9-23.7-53.8-47.5-80.7-71.2c-3.9-3.4-7.7-6.8-11.6-10.2c-9.8-8.6-25.8-10.4-35.4,0    C59.9,275.7,58.1,292.3,68.6,301.6L68.6,301.6z"></path></g></g></svg>